<svg width="375" height="66" viewBox="0 0 375 66" fill="none" xmlns="http://www.w3.org/2000/svg">
<g filter="url(#filter0_d)">
<path d="M50.8 38.6242C51.448 38.6002 51.94 38.5282 52.276 38.4082C52.612 38.2642 52.876 37.9762 53.068 37.5442C53.26 37.1122 53.356 36.4282 53.356 35.4922V21.7042C53.356 20.3602 53.404 19.2802 53.5 18.4642L50.8 18.5722V15.8002L61.024 15.7282C64.264 15.7042 66.796 16.3522 68.62 17.6722C70.468 18.9682 71.392 20.9482 71.392 23.6122C71.392 24.9802 71.008 26.2882 70.24 27.5362C69.472 28.7842 68.32 29.8042 66.784 30.5962C65.248 31.3882 63.376 31.8202 61.168 31.8922L59.764 31.9282L58.576 31.8922V35.0602C58.576 36.4282 58.528 37.5202 58.432 38.3362C59.2 38.2642 60.22 38.2282 61.492 38.2282V41.0002H50.8V38.6242ZM60.196 29.3002C62.14 29.3002 63.556 28.8202 64.444 27.8602C65.356 26.8762 65.812 25.4482 65.812 23.5762C65.812 20.0242 64.204 18.2482 60.988 18.2482C60.148 18.2482 59.536 18.4282 59.152 18.7882C58.768 19.1482 58.576 19.9162 58.576 21.0922V29.1922C59.08 29.2642 59.62 29.3002 60.196 29.3002ZM79.3002 38.6242C79.9482 38.6002 80.4402 38.5282 80.7762 38.4082C81.1122 38.2642 81.3762 37.9762 81.5682 37.5442C81.7602 37.1122 81.8562 36.4282 81.8562 35.4922V32.3602L75.2322 21.8842C74.8722 21.2842 74.5482 20.6602 74.2602 20.0122C73.9962 19.3642 73.8642 18.8482 73.8642 18.4642L72.1002 18.5722V15.8002H82.7202V18.1762C81.9522 18.1282 81.3282 18.2242 80.8482 18.4642C80.3922 18.7042 80.1642 19.0762 80.1642 19.5802C80.1642 20.0122 80.3082 20.4682 80.5962 20.9482L83.3322 25.4482C83.4042 25.5682 83.6682 26.0362 84.1242 26.8522C84.6042 27.6682 84.9522 28.3642 85.1682 28.9402H85.2042C85.2762 28.7722 85.3602 28.5922 85.4562 28.4002C85.5522 28.1842 85.6602 27.9442 85.7802 27.6802C86.3802 26.4802 86.7522 25.7242 86.8962 25.4122L88.7682 21.7402C89.5122 20.1562 90.1482 19.0642 90.6762 18.4642V18.4282L88.8042 18.5362L87.9042 18.5722V15.8002H95.8602V18.1762C95.0202 18.2962 94.3002 18.6442 93.7002 19.2202C93.1002 19.7722 92.4522 20.7082 91.7562 22.0282L87.0762 31.0282V35.0962C87.0762 36.4402 87.0282 37.5202 86.9322 38.3362C87.7242 38.2642 88.6842 38.2282 89.8122 38.2282V41.0002H79.3002V38.6242Z" fill="white"/>
</g>
<g filter="url(#filter1_d)">
<path d="M276.432 26.636C275.832 25.868 275.172 24.968 274.452 23.936H274.416L274.488 35.096C274.488 36.44 274.44 37.52 274.344 38.336C275.112 38.264 276.012 38.228 277.044 38.228V41H268.836V38.624C269.484 38.6 269.976 38.528 270.312 38.408C270.648 38.264 270.912 37.976 271.104 37.544C271.296 37.112 271.392 36.428 271.392 35.492L271.32 21.704C271.32 20.096 271.368 19.016 271.464 18.464L268.728 18.572V15.8H274.38L285.396 29.696C286.404 31.016 287.244 32.156 287.916 33.116H287.952V21.704C287.952 20.144 287.988 19.064 288.06 18.464L285.36 18.572V15.8H293.568V18.176C292.92 18.2 292.428 18.284 292.092 18.428C291.756 18.548 291.492 18.824 291.3 19.256C291.108 19.688 291.012 20.372 291.012 21.308V41.36H287.952L276.432 26.636Z" fill="#FF1744" fill-opacity="0.87"/>
<path d="M296.644 38.624C297.292 38.6 297.784 38.528 298.12 38.408C298.456 38.264 298.72 37.976 298.912 37.544C299.104 37.112 299.2 36.428 299.2 35.492V21.704C299.2 20.36 299.248 19.28 299.344 18.464L296.644 18.572V15.8H314.644L314.86 22.784H312.484C312.484 21.008 312.052 19.784 311.188 19.112C310.348 18.416 309.328 18.092 308.128 18.14L306.832 18.176C306.256 18.2 305.8 18.284 305.464 18.428C305.128 18.548 304.864 18.836 304.672 19.292C304.504 19.748 304.42 20.42 304.42 21.308V26.708H308.632C308.608 26.3 308.56 25.256 308.488 23.576H311.26V32.324H308.884C308.884 31.364 308.728 30.656 308.416 30.2C308.128 29.744 307.744 29.456 307.264 29.336C306.784 29.192 306.148 29.132 305.356 29.156L304.42 29.192V35.096C304.42 36.392 304.372 37.448 304.276 38.264H309.1C310.324 38.264 311.356 37.856 312.196 37.04C313.06 36.2 313.492 34.88 313.492 33.08H315.832L315.652 41H296.644V38.624ZM320.483 21.812C319.787 20.18 319.438 19.064 319.438 18.464L317.531 18.572V15.8H328.151V18.176C327.383 18.152 326.795 18.26 326.387 18.5C326.003 18.716 325.811 19.112 325.811 19.688C325.811 20 325.883 20.396 326.027 20.876L328.187 29.084C328.235 29.276 328.379 29.84 328.619 30.776C328.859 31.688 329.111 32.828 329.375 34.196H329.411L331.463 26.816L334.811 15.8H338.051L342.155 29.048C342.491 30.152 342.923 31.88 343.451 34.232H343.487L344.855 29.264L346.871 21.74C347.255 20.228 347.747 19.136 348.347 18.464V18.428L346.475 18.536L345.575 18.572V15.8H353.675V18.176C352.835 18.224 352.103 18.548 351.479 19.148C350.855 19.724 350.315 20.684 349.859 22.028L343.991 41.216H340.787L336.539 28.328C336.155 27.2 335.771 25.724 335.387 23.9C335.363 23.684 335.303 23.384 335.207 23H335.171C334.931 24.56 334.583 26.132 334.127 27.716L330.023 41.216H326.891L320.483 21.812ZM364.29 41.576C363.306 41.576 362.25 41.42 361.122 41.108C360.018 40.796 358.998 40.364 358.062 39.812H358.026L358.134 41.324H355.362V32.9H357.738C358.05 34.868 358.806 36.38 360.006 37.436C361.206 38.468 362.67 38.984 364.398 38.984C365.646 38.984 366.678 38.66 367.494 38.012C368.31 37.34 368.718 36.536 368.718 35.6C368.718 34.832 368.442 34.172 367.89 33.62C367.362 33.068 366.762 32.636 366.09 32.324C365.442 32.012 364.398 31.568 362.958 30.992C360.318 29.936 358.29 28.736 356.874 27.392C355.482 26.048 354.786 24.284 354.786 22.1C354.786 20.996 355.062 19.928 355.614 18.896C356.166 17.84 357.066 16.964 358.314 16.268C359.586 15.572 361.218 15.224 363.21 15.224C364.242 15.224 365.322 15.38 366.45 15.692C367.578 15.98 368.514 16.4 369.258 16.952H369.294L369.15 15.476H371.958V23.864H369.582C369.27 21.896 368.574 20.396 367.494 19.364C366.438 18.332 365.082 17.816 363.426 17.816C362.346 17.816 361.41 18.116 360.618 18.716C359.85 19.292 359.466 20.024 359.466 20.912C359.466 21.968 359.91 22.856 360.798 23.576C361.686 24.296 363.186 25.088 365.298 25.952C367.722 26.912 369.69 28.028 371.202 29.3C372.738 30.548 373.506 32.216 373.506 34.304C373.506 35.72 373.122 36.98 372.354 38.084C371.586 39.188 370.506 40.052 369.114 40.676C367.722 41.276 366.114 41.576 364.29 41.576Z" fill="white"/>
</g>
<g filter="url(#filter2_d)">
<path fill-rule="evenodd" clip-rule="evenodd" d="M38.3686 58.0006L13.0925 57.9938C11.0362 57.9938 10.7163 55.0038 12.7316 54.5609L24.0712 52.0732V50.6388C15.6883 50.0652 7.84432 45.4409 3.44486 37.8215L3.44101 37.8197C-0.140776 31.9585 -0.787622 24.4276 0.85906 18.2804C2.46836 12.2728 6.24068 6.84475 11.8369 3.26456C11.34 2.40383 10.2935 1.10289 11.5367 0.383316C12.783 -0.338296 13.3888 1.22274 13.8857 2.08324L19.0668 0.0695226C21.281 -0.522268 22.181 2.84178 19.9656 3.43448L14.5953 5.65324L14.5971 5.65619C3.94421 11.8068 0.297176 25.4331 6.43938 36.0792L6.4421 36.0777C12.1479 45.9598 24.2867 49.813 34.5118 45.4158C36.627 44.5064 36.9823 44.1416 38.7398 42.7913L41.4751 40.6892C43.0984 39.0661 45.5644 41.532 43.9413 43.1551L39.6052 46.6365C40.113 47.5161 41.1735 48.8317 39.9215 49.5511C38.6738 50.2679 38.0383 48.6985 37.5279 47.8142C34.3029 49.4854 30.8684 50.4089 27.4699 50.6404V52.073L38.5594 54.5271C40.8017 54.9155 40.439 58.0006 38.3686 58.0006Z" fill="#FF1744" fill-opacity="0.87"/>
<path fill-rule="evenodd" clip-rule="evenodd" d="M18.8228 10.6384L21.5369 15.3387C22.606 14.6411 23.6077 13.8574 24.5325 12.9976C22.7599 11.9559 20.8397 11.1579 18.8228 10.6384ZM22.7211 17.39C24.098 16.5008 25.3801 15.4767 26.5499 14.3357C28.6411 15.8924 30.4615 17.8158 31.9066 20.037L26.1636 23.3528L22.7211 17.39ZM27.3442 25.3976L30.7876 31.3621C32.253 30.6088 33.7807 30.008 35.3467 29.5664C35.0443 26.9824 34.2873 24.4467 33.0852 22.0831L27.3442 25.3976ZM31.9705 33.4103L34.6836 38.11C35.2416 36.1046 35.5117 34.0454 35.497 31.9922C34.2841 32.3633 33.1037 32.8373 31.9705 33.4103ZM32.6409 39.2942C30.6174 38.7733 28.6923 37.9738 26.916 36.9293C27.8467 36.0677 28.8534 35.2842 29.9246 34.5896L32.6409 39.2942ZM28.7401 32.5378C27.3548 33.4262 26.067 34.4482 24.8937 35.5858C22.8147 34.0345 21.0013 32.1141 19.5569 29.8933L25.2992 26.578L28.7401 32.5378ZM24.1188 24.5332L20.6782 18.5734C19.2191 19.327 17.69 19.9305 16.1163 20.3778C16.4199 22.9577 17.1766 25.4889 18.3765 27.8486L24.1188 24.5332ZM19.4939 16.5225C18.3554 17.1043 17.1743 17.5842 15.9645 17.9596C15.9473 15.8958 16.2162 13.8268 16.7758 11.8152L19.4939 16.5225ZM20.1129 8.53788C22.9031 7.58087 25.8307 7.37537 28.6306 7.85184C27.9321 9.06148 27.1235 10.1977 26.2179 11.2481C24.3272 10.0778 22.275 9.16298 20.1129 8.53788ZM28.173 12.5921C30.4248 14.3072 32.388 16.4192 33.9543 18.8548L40.142 15.2823C37.8927 11.928 34.6369 9.5862 31.0125 8.43072C30.2082 9.91676 29.2555 11.3101 28.173 12.5921ZM35.1367 20.8984L41.3201 17.3286C43.1007 20.9537 43.5008 24.9424 42.6913 28.6576C40.9982 28.6103 39.3144 28.7374 37.6659 29.0328C37.3061 26.2229 36.4601 23.4679 35.1367 20.8984ZM37.8537 31.4086C37.9212 33.6305 37.6883 35.8645 37.1493 38.047C39.3724 36.1098 41.0134 33.6774 42.001 31.0141C40.6071 31.0157 39.2183 31.1483 37.8537 31.4086ZM31.3494 41.3933C29.1823 40.766 27.1247 39.847 25.2288 38.6714C24.3161 39.7238 23.501 40.8625 22.7977 42.074C25.6078 42.5572 28.5482 42.3544 31.3494 41.3933ZM23.2699 37.3217C21.0219 35.6069 19.0641 33.5014 17.5056 31.078L11.3203 34.6492C13.562 37.9926 16.8037 40.3294 20.4136 41.489C21.2231 39.9993 22.1817 38.6034 23.2699 37.3217ZM16.3252 29.033L10.1415 32.6033C8.36613 28.9893 7.96352 25.0138 8.76285 21.309C10.4546 21.3522 12.1421 21.2192 13.798 20.9172C14.1587 23.7203 15.0045 26.4683 16.3252 29.033ZM13.6086 18.5498C13.5386 16.3188 13.7734 14.0745 14.3169 11.8797C12.082 13.8257 10.4345 16.2733 9.44753 18.952C10.8504 18.9488 12.2436 18.8133 13.6086 18.5498ZM35.695 41.986C35.637 42.028 35.5751 42.0647 35.5099 42.0953C30.8118 44.778 25.471 45.3184 20.6261 44.0199C10.1091 41.2024 3.85679 30.3861 6.6764 19.8607C9.49398 9.34355 20.3102 3.09123 30.8356 5.91107C47.6678 10.4206 50.7999 33.1434 35.695 41.986Z" fill="white"/>
</g>
<g filter="url(#filter3_d)">
<path d="M110.8 38.624C111.448 38.6 111.94 38.528 112.276 38.408C112.612 38.264 112.876 37.976 113.068 37.544C113.26 37.112 113.356 36.428 113.356 35.492V21.704C113.356 20.36 113.404 19.28 113.5 18.464L110.8 18.572V15.8L121.024 15.728C124.312 15.704 126.844 16.28 128.62 17.456C130.42 18.632 131.32 20.54 131.32 23.18C131.32 24.836 130.78 26.312 129.7 27.608C128.644 28.88 127.072 29.816 124.984 30.416V30.452C125.416 30.62 125.86 30.92 126.316 31.352C126.772 31.76 127.156 32.216 127.468 32.72L129.16 35.24C129.976 36.512 130.648 37.388 131.176 37.868C131.728 38.348 132.4 38.6 133.192 38.624V41H127.252C126.844 40.712 126.436 40.304 126.028 39.776C125.62 39.224 125.152 38.504 124.624 37.616L121.96 33.296C121.36 32.336 120.856 31.64 120.448 31.208H118.576V35.06C118.576 36.428 118.528 37.52 118.432 38.336C119.2 38.264 120.22 38.228 121.492 38.228V41H110.8V38.624ZM120.304 28.616C122.272 28.616 123.688 28.184 124.552 27.32C125.44 26.432 125.884 25.052 125.884 23.18C125.884 21.188 125.368 19.868 124.336 19.22C123.328 18.572 122.212 18.248 120.988 18.248C120.148 18.248 119.536 18.428 119.152 18.788C118.768 19.148 118.576 19.916 118.576 21.092V28.472C119.296 28.568 119.872 28.616 120.304 28.616Z" fill="#FF1744" fill-opacity="0.87"/>
<path d="M135.48 38.624C136.128 38.6 136.62 38.528 136.956 38.408C137.292 38.264 137.556 37.976 137.748 37.544C137.94 37.112 138.036 36.428 138.036 35.492V21.704C138.036 20.36 138.084 19.28 138.18 18.464L135.48 18.572V15.8H153.48L153.696 22.784H151.32C151.32 21.008 150.888 19.784 150.024 19.112C149.184 18.416 148.164 18.092 146.964 18.14L145.668 18.176C145.092 18.2 144.636 18.284 144.3 18.428C143.964 18.548 143.7 18.836 143.508 19.292C143.34 19.748 143.256 20.42 143.256 21.308V26.708H147.468C147.444 26.3 147.396 25.256 147.324 23.576H150.096V32.324H147.72C147.72 31.364 147.564 30.656 147.252 30.2C146.964 29.744 146.58 29.456 146.1 29.336C145.62 29.192 144.984 29.132 144.192 29.156L143.256 29.192V35.096C143.256 36.392 143.208 37.448 143.112 38.264H147.936C149.16 38.264 150.192 37.856 151.032 37.04C151.896 36.2 152.328 34.88 152.328 33.08H154.668L154.488 41H135.48V38.624ZM157.945 38.624C158.593 38.6 159.085 38.528 159.421 38.408C159.757 38.264 160.021 37.976 160.213 37.544C160.405 37.112 160.501 36.428 160.501 35.492V21.704C160.501 20.36 160.549 19.28 160.645 18.464L157.945 18.572V15.8L168.169 15.728C171.409 15.704 173.941 16.352 175.765 17.672C177.613 18.968 178.537 20.948 178.537 23.612C178.537 24.98 178.153 26.288 177.385 27.536C176.617 28.784 175.465 29.804 173.929 30.596C172.393 31.388 170.521 31.82 168.313 31.892L166.909 31.928L165.721 31.892V35.06C165.721 36.428 165.673 37.52 165.577 38.336C166.345 38.264 167.365 38.228 168.637 38.228V41H157.945V38.624ZM167.341 29.3C169.285 29.3 170.701 28.82 171.589 27.86C172.501 26.876 172.957 25.448 172.957 23.576C172.957 20.024 171.349 18.248 168.133 18.248C167.293 18.248 166.681 18.428 166.297 18.788C165.913 19.148 165.721 19.916 165.721 21.092V29.192C166.225 29.264 166.765 29.3 167.341 29.3ZM192.925 41.576C190.045 41.576 187.669 40.94 185.797 39.668C183.925 38.396 182.557 36.764 181.693 34.772C180.829 32.78 180.397 30.656 180.397 28.4C180.397 26.264 180.877 24.188 181.837 22.172C182.797 20.156 184.225 18.5 186.121 17.204C188.041 15.884 190.345 15.224 193.033 15.224C195.793 15.224 198.109 15.884 199.981 17.204C201.877 18.5 203.281 20.156 204.193 22.172C205.105 24.188 205.561 26.264 205.561 28.4C205.561 30.488 205.081 32.552 204.121 34.592C203.161 36.608 201.721 38.276 199.801 39.596C197.905 40.916 195.613 41.576 192.925 41.576ZM193.285 38.948C194.845 38.948 196.117 38.456 197.101 37.472C198.085 36.488 198.793 35.24 199.225 33.728C199.657 32.216 199.873 30.644 199.873 29.012C199.873 25.604 199.273 22.892 198.073 20.876C196.873 18.86 195.097 17.852 192.745 17.852C191.161 17.852 189.865 18.356 188.857 19.364C187.849 20.372 187.129 21.644 186.697 23.18C186.265 24.716 186.049 26.312 186.049 27.968C186.049 29.648 186.289 31.328 186.769 33.008C187.249 34.688 188.029 36.104 189.109 37.256C190.213 38.384 191.605 38.948 193.285 38.948ZM208.183 38.624C208.831 38.6 209.323 38.528 209.659 38.408C209.995 38.264 210.259 37.976 210.451 37.544C210.643 37.112 210.739 36.428 210.739 35.492V21.704C210.739 20.36 210.787 19.28 210.883 18.464L208.183 18.572V15.8L218.407 15.728C221.695 15.704 224.227 16.28 226.003 17.456C227.803 18.632 228.703 20.54 228.703 23.18C228.703 24.836 228.163 26.312 227.083 27.608C226.027 28.88 224.455 29.816 222.367 30.416V30.452C222.799 30.62 223.243 30.92 223.699 31.352C224.155 31.76 224.539 32.216 224.851 32.72L226.543 35.24C227.359 36.512 228.031 37.388 228.559 37.868C229.111 38.348 229.783 38.6 230.575 38.624V41H224.635C224.227 40.712 223.819 40.304 223.411 39.776C223.003 39.224 222.535 38.504 222.007 37.616L219.343 33.296C218.743 32.336 218.239 31.64 217.831 31.208H215.959V35.06C215.959 36.428 215.911 37.52 215.815 38.336C216.583 38.264 217.603 38.228 218.875 38.228V41H208.183V38.624ZM217.687 28.616C219.655 28.616 221.071 28.184 221.935 27.32C222.823 26.432 223.267 25.052 223.267 23.18C223.267 21.188 222.751 19.868 221.719 19.22C220.711 18.572 219.595 18.248 218.371 18.248C217.531 18.248 216.919 18.428 216.535 18.788C216.151 19.148 215.959 19.916 215.959 21.092V28.472C216.679 28.568 217.255 28.616 217.687 28.616ZM237.543 38.624C238.191 38.6 238.683 38.528 239.019 38.408C239.355 38.264 239.619 37.976 239.811 37.544C240.003 37.112 240.099 36.428 240.099 35.492V18.248H238.443C237.027 18.272 235.935 18.752 235.167 19.688C234.399 20.624 234.015 22.04 234.015 23.936H231.639L231.819 15.8H253.635L253.851 23.936H251.475C251.475 22.04 251.079 20.612 250.287 19.652C249.519 18.668 248.439 18.188 247.047 18.212H245.319V35.096C245.319 36.704 245.271 37.784 245.175 38.336C245.967 38.264 246.927 38.228 248.055 38.228V41H237.543V38.624Z" fill="white"/>
</g>
<g filter="url(#filter4_d)">
<circle cx="102" cy="29" r="4" fill="white"/>
</g>
<g filter="url(#filter5_d)">
<circle cx="261" cy="29" r="4" fill="white"/>
</g>
<defs>
<filter id="filter0_d" x="46.8" y="15.7276" width="53.0602" height="33.2726" filterUnits="userSpaceOnUse" color-interpolation-filters="sRGB">
<feFlood flood-opacity="0" result="BackgroundImageFix"/>
<feColorMatrix in="SourceAlpha" type="matrix" values="0 0 0 0 0 0 0 0 0 0 0 0 0 0 0 0 0 0 127 0"/>
<feOffset dy="4"/>
<feGaussianBlur stdDeviation="2"/>
<feColorMatrix type="matrix" values="0 0 0 0 0 0 0 0 0 0 0 0 0 0 0 0 0 0 0.25 0"/>
<feBlend mode="normal" in2="BackgroundImageFix" result="effect1_dropShadow"/>
<feBlend mode="normal" in="SourceGraphic" in2="effect1_dropShadow" result="shape"/>
</filter>
<filter id="filter1_d" x="264.728" y="15.224" width="112.778" height="34.352" filterUnits="userSpaceOnUse" color-interpolation-filters="sRGB">
<feFlood flood-opacity="0" result="BackgroundImageFix"/>
<feColorMatrix in="SourceAlpha" type="matrix" values="0 0 0 0 0 0 0 0 0 0 0 0 0 0 0 0 0 0 127 0"/>
<feOffset dy="4"/>
<feGaussianBlur stdDeviation="2"/>
<feColorMatrix type="matrix" values="0 0 0 0 0 0 0 0 0 0 0 0 0 0 0 0 0 0 0.25 0"/>
<feBlend mode="normal" in2="BackgroundImageFix" result="effect1_dropShadow"/>
<feBlend mode="normal" in="SourceGraphic" in2="effect1_dropShadow" result="shape"/>
</filter>
<filter id="filter2_d" x="-4" y="0" width="53.4281" height="66.0006" filterUnits="userSpaceOnUse" color-interpolation-filters="sRGB">
<feFlood flood-opacity="0" result="BackgroundImageFix"/>
<feColorMatrix in="SourceAlpha" type="matrix" values="0 0 0 0 0 0 0 0 0 0 0 0 0 0 0 0 0 0 127 0"/>
<feOffset dy="4"/>
<feGaussianBlur stdDeviation="2"/>
<feColorMatrix type="matrix" values="0 0 0 0 0 0 0 0 0 0 0 0 0 0 0 0 0 0 0.25 0"/>
<feBlend mode="normal" in2="BackgroundImageFix" result="effect1_dropShadow"/>
<feBlend mode="normal" in="SourceGraphic" in2="effect1_dropShadow" result="shape"/>
</filter>
<filter id="filter3_d" x="106.8" y="15.224" width="151.051" height="34.352" filterUnits="userSpaceOnUse" color-interpolation-filters="sRGB">
<feFlood flood-opacity="0" result="BackgroundImageFix"/>
<feColorMatrix in="SourceAlpha" type="matrix" values="0 0 0 0 0 0 0 0 0 0 0 0 0 0 0 0 0 0 127 0"/>
<feOffset dy="4"/>
<feGaussianBlur stdDeviation="2"/>
<feColorMatrix type="matrix" values="0 0 0 0 0 0 0 0 0 0 0 0 0 0 0 0 0 0 0.25 0"/>
<feBlend mode="normal" in2="BackgroundImageFix" result="effect1_dropShadow"/>
<feBlend mode="normal" in="SourceGraphic" in2="effect1_dropShadow" result="shape"/>
</filter>
<filter id="filter4_d" x="94" y="25" width="16" height="16" filterUnits="userSpaceOnUse" color-interpolation-filters="sRGB">
<feFlood flood-opacity="0" result="BackgroundImageFix"/>
<feColorMatrix in="SourceAlpha" type="matrix" values="0 0 0 0 0 0 0 0 0 0 0 0 0 0 0 0 0 0 127 0"/>
<feOffset dy="4"/>
<feGaussianBlur stdDeviation="2"/>
<feColorMatrix type="matrix" values="0 0 0 0 0 0 0 0 0 0 0 0 0 0 0 0 0 0 0.25 0"/>
<feBlend mode="normal" in2="BackgroundImageFix" result="effect1_dropShadow"/>
<feBlend mode="normal" in="SourceGraphic" in2="effect1_dropShadow" result="shape"/>
</filter>
<filter id="filter5_d" x="253" y="25" width="16" height="16" filterUnits="userSpaceOnUse" color-interpolation-filters="sRGB">
<feFlood flood-opacity="0" result="BackgroundImageFix"/>
<feColorMatrix in="SourceAlpha" type="matrix" values="0 0 0 0 0 0 0 0 0 0 0 0 0 0 0 0 0 0 127 0"/>
<feOffset dy="4"/>
<feGaussianBlur stdDeviation="2"/>
<feColorMatrix type="matrix" values="0 0 0 0 0 0 0 0 0 0 0 0 0 0 0 0 0 0 0.25 0"/>
<feBlend mode="normal" in2="BackgroundImageFix" result="effect1_dropShadow"/>
<feBlend mode="normal" in="SourceGraphic" in2="effect1_dropShadow" result="shape"/>
</filter>
</defs>
</svg>
